<?xml version="1.0" encoding="UTF-8" standalone="no"?>
<!-- Created with Inkscape (http://www.inkscape.org/) -->

<svg
   xmlns:dc="http://purl.org/dc/elements/1.1/"
   xmlns:cc="http://creativecommons.org/ns#"
   xmlns:rdf="http://www.w3.org/1999/02/22-rdf-syntax-ns#"
   xmlns:svg="http://www.w3.org/2000/svg"
   xmlns="http://www.w3.org/2000/svg"
   xmlns:sodipodi="http://sodipodi.sourceforge.net/DTD/sodipodi-0.dtd"
   xmlns:inkscape="http://www.inkscape.org/namespaces/inkscape"
   version="1.1"
   id="svg8723"
   xml:space="preserve"
   width="800"
   height="800"
   viewBox="0 0 800 800"
   sodipodi:docname="halftone-corner-publicdomainvectors.org.svg"
   inkscape:version="0.92.4 (5da689c313, 2019-01-14)"><metadata
     id="metadata8729"><rdf:RDF><cc:Work
         rdf:about=""><dc:format>image/svg+xml</dc:format><dc:type
           rdf:resource="http://purl.org/dc/dcmitype/StillImage" /><dc:title></dc:title></cc:Work></rdf:RDF></metadata><defs
     id="defs8727"><clipPath
       clipPathUnits="userSpaceOnUse"
       id="clipPath8739"><path
         d="M 0,600 H 600 V 0 H 0 Z"
         id="path8737"
         inkscape:connector-curvature="0" /></clipPath><radialGradient
       fx="0"
       fy="0"
       cx="0"
       cy="0"
       r="1"
       gradientUnits="userSpaceOnUse"
       gradientTransform="matrix(253.02347,0,0,-253.02347,299.8335,404.70117)"
       spreadMethod="pad"
       id="radialGradient8761"><stop
         style="stop-opacity:1;stop-color:#fff200"
         offset="0"
         id="stop8753" /><stop
         style="stop-opacity:1;stop-color:#fff200"
         offset="0.19"
         id="stop8755" /><stop
         style="stop-opacity:1;stop-color:#fff200"
         offset="0.23583464"
         id="stop8757" /><stop
         style="stop-opacity:1;stop-color:#f57b25"
         offset="1"
         id="stop8759" /></radialGradient></defs><sodipodi:namedview
     pagecolor="#ffffff"
     bordercolor="#666666"
     borderopacity="1"
     objecttolerance="10"
     gridtolerance="10"
     guidetolerance="10"
     inkscape:pageopacity="0"
     inkscape:pageshadow="2"
     inkscape:window-width="1920"
     inkscape:window-height="1018"
     id="namedview8725"
     showgrid="false"
     inkscape:zoom="0.86963542"
     inkscape:cx="440.67797"
     inkscape:cy="400"
     inkscape:window-x="-8"
     inkscape:window-y="-8"
     inkscape:window-maximized="1"
     inkscape:current-layer="g8731" /><g
     id="g8731"
     inkscape:groupmode="layer"
     inkscape:label="halftone-corner-publicdomainvectors.org"
     transform="matrix(1.3333333,0,0,-1.3333333,0,800)"><g
       id="g8733"><g
         id="g8735"
         clip-path="url(#clipPath8739)"><g
           id="g8741"><g
             id="g8743"><g
               id="g8749"><g
                 id="g8751"><path
                   d="m 46.861,520.408 c -1.21,-3.754 -2.6,-7.673 -2.478,-10.95 -4.346,1.407 -8.624,0.12 -12.927,-2.781 2.489,4.09 5.572,8.447 5.113,11.093 3.404,0.88 6.811,0.508 10.292,2.638 m -13.87,13.82 c -1.161,-2.677 -2.899,-5.666 -2.539,-7.662 -3.346,-0.21 -6.722,-1.833 -10.037,-2.907 3.168,3.659 3.517,5.936 3.932,8.204 2.884,1.179 5.665,0.341 8.644,2.365 M 22.96,547.295 c -1.294,-3.03 -4.089,-6.856 -3.31,-8.932 -3.485,-0.447 -6.952,-1.176 -10.617,-3.804 3.119,4.518 5.339,8.537 4.243,10.814 3.089,-0.187 6.245,-0.316 9.684,1.922 m 51.5,-2.71 c 0.505,-0.022 0.633,-0.23 0.438,-0.581 -2.502,-3.904 -2.44,-6.643 -1.735,-9.129 -3.65,0.214 -7.206,-0.485 -10.667,-1.488 2.352,3.502 2.017,5.676 3.413,8.673 2.9,-0.017 5.758,0.919 8.551,2.525 m -16.251,11.412 c 0.442,-1.58 -2.224,-4.736 -1.711,-6.327 -2.639,-0.867 -5.246,-0.957 -7.821,-2.458 -0.094,1.852 2.514,4.996 1.509,6.355 2.659,0.826 5.366,0.555 8.023,2.43 M 47.57,567.975 c -1.633,-3.006 -3.486,-6.143 -3.867,-8.549 -3.082,0.071 -6.124,-0.975 -9.164,-2.84 1.55,3.291 3.385,6.691 2.019,8.413 3.602,0.041 7.278,0.446 11.012,2.976 m 58.091,3.836 c -3.738,-5.571 -6.087,-10.523 -3.201,-13.082 -5.08,0.252 -9.793,-0.744 -14.315,-2.427 3.166,4.379 3.092,7.156 2.26,9.525 5.259,0.724 10.496,2.158 15.256,5.984 m -19.086,8.049 c -1.339,-3.136 -4.343,-7.145 -2.91,-8.961 -3.664,-1.013 -7.417,-0.937 -10.855,-3.189 0.64,2.661 2.816,6.045 1.218,7.498 4.204,0.928 8.537,1.598 12.547,4.652 M 65.721,600 c -2.23,-1.504 -4.213,-3.225 -5.617,-4.846 -8.84,-10.246 2.829,-14.025 14.743,-4.443 -1.712,-1.68 -3.229,-3.227 -4.272,-4.689 -2.229,-3.106 -1.386,-5.182 -2.844,-7.094 -3.636,0.558 -8.615,-2.519 -11.031,-3.343 4.319,6.327 3.475,10.706 -2.76,10.293 -9.273,-0.632 -21.889,-13.774 -19.784,-18.596 -4.614,1.143 -9.363,-1.615 -14.114,-4.84 6.566,6.615 7.706,12.113 2.686,12.575 -4.508,0.407 -11.494,-4.129 -15.342,-8.511 -8.339,-9.528 -0.928,-14.584 10.131,-6.274 C 11.46,554.337 11.45,550.545 10.988,548.058 7.7,548.64 3.747,547.33 0,544.83 v -17.229 c 0.686,0.34 1.386,0.74 2.098,1.202 -0.8,-0.97 -1.496,-1.89 -2.098,-2.765 v -13.572 c 2.771,-0.88 7.576,1.097 9.644,1.472 -3.872,-4.953 -3.805,-9.44 -4.42,-12.131 -1.683,0.394 -3.432,0.466 -5.224,0.194 v -21.123 c 5.204,5.013 9.143,11.638 8.658,16.432 4.132,-2.861 10.763,1.419 14.329,2.126 -16.967,-22.207 10.903,-29.198 24.726,-5.248 2.147,3.721 1.407,7.515 2.547,10.202 5.611,-2.019 11.219,0.523 16.874,3.795 -6.753,-9.287 -7.15,-16.514 -1.225,-19.989 9.336,-5.437 22.825,1.83 29.07,12.688 5.163,8.994 0.871,16.615 -6.976,17.528 -4.495,0.534 -9.125,-1.894 -13.761,-3.585 6.233,6.818 5.084,11.837 5.323,14.791 5.319,-1.422 12.259,2.355 15.976,3.744 -15.22,-20.972 15.878,-27.445 30.001,-6.803 10.592,15.564 -7.911,22.417 -21.88,14.135 6.327,7.268 3.79,11.816 3.674,14.935 14.553,-2.908 32.088,14.85 26.255,22.283 -3.757,4.736 -17.718,2.683 -24.509,-3.441 8.142,8.373 7.091,15.458 -0.891,15.878 -4.567,0.238 -10.51,-2.47 -14.424,-4.489 9.311,10.531 -0.575,15.283 -11.784,9.703 -2.065,-1.039 -3.5,-2.399 -5.692,-3.541 2.992,3.089 4.708,5.858 5.132,7.978 z M 47.886,243.039 c 0.628,-1.202 0.325,-2.597 0.01,-3.964 2.518,-4.13 5,-4.465 7.441,0.328 2.443,6.383 -4.412,12.414 -7.451,3.636 m -25.187,67.604 c -7.512,-11.387 3.212,-26.107 11.423,-11.51 3.932,6.976 2.189,12.307 -1.911,14.736 -4.77,2.749 -7.655,-0.39 -9.512,-3.226 M 146.101,209.402 c 0.912,1.752 1.758,3.558 2.665,5.363 -1.454,1.505 -2.807,2.907 -4.266,4.383 -3.077,-3.716 -2.553,-6.938 1.601,-9.746 M 0,342.206 c 3.355,-6.325 13.187,-6.486 19.388,6.677 3.294,6.962 1.041,13.968 -4.331,15.943 -4.135,1.468 -7.72,-1.077 -10.052,-3.773 C 2.59,358.266 0.972,355.56 0,353.042 Z m 109.479,-56.098 c 2.619,5.924 0.284,10.415 -4.246,11.997 -15.871,5.485 -5.032,-33.051 4.246,-11.997 M 0,378.891 c 10.188,9.974 10.292,22.444 2.169,24.966 -0.696,0.213 -1.427,0.308 -2.169,0.307 z m 64.705,-26.417 c -10.268,-15.946 8.025,-28.67 16.799,-12.984 3.63,6.508 3.493,14.857 -4.282,17.958 -4.944,1.974 -9.632,-0.527 -12.517,-4.974 m 134.157,-80.743 c 1.182,-1.28 1.18,-2.823 1.175,-4.375 4.666,-4.315 8.271,-4.652 10.225,0.709 1.493,7.087 -9.823,13.439 -11.4,3.666 M 39.766,374.979 c 12.79,-12.11 33.69,20.087 15.892,26.447 -13.004,4.619 -23.77,-18.945 -15.892,-26.447 m 104.523,-31.275 c -6.949,-12.474 11.543,-27.439 18.508,-11.558 3.351,7.634 -0.481,13.168 -6.696,15.45 -7.113,2.613 -10.101,-0.878 -11.812,-3.892 M 21.29,406.571 c 13.423,-9.522 35.112,23.207 18.842,29.263 C 26.526,440.806 10.44,414.292 21.29,406.571 M 348.963,238.194 c 0.682,2.15 1.29,4.225 2.017,6.26 -2.656,1.645 -5.164,3.224 -7.715,4.792 -3.151,-4.328 -1.284,-8.033 5.698,-11.052 M 107.31,373.108 c 12.205,-9.423 27.574,9.617 21.52,20.635 -1.237,2.277 -4.033,3.729 -5.972,4.611 -15.086,6.68 -26.458,-16.74 -15.548,-25.246 M 3.445,447.825 c -5.56,-12.489 5.359,-21.989 17.915,-12.07 11.86,9.371 13.519,24.023 5.084,26.944 -8.073,2.772 -18.702,-5.28 -22.999,-14.874 M 271.34,321.729 c 1.733,6.504 -2.922,11.222 -9.702,12.653 -23.691,4.999 3.352,-36.142 9.702,-12.653 M 82.01,435.334 c -19.166,-14.686 -2.101,-36.656 13.375,-24.879 11.787,8.999 9.959,23.432 1.594,26.836 -7.187,2.909 -11.796,0.457 -14.969,-1.957 M 0,454.223 c 4.583,0.943 10.081,4.557 15.268,11.812 4.265,5.988 5.595,13.249 3.089,16.53 C 14.345,487.774 6.376,485.161 0,480.061 Z m 189.851,-64.849 c -9.285,-17.259 19.204,-29.456 26.497,-12.407 3.023,7.015 0.357,15.723 -11.032,18.411 -7.283,1.736 -12.897,-1.185 -15.465,-6.004 M 55.3,437.149 c 16.223,-9.534 39.845,25.475 19.114,30.176 C 59.2,470.728 41.948,445.074 55.3,437.149 M 401.795,311.654 c 2.153,-1.356 2.676,-3.066 3.289,-4.773 8.331,-4.593 13.693,-4.757 14.632,1.332 -0.478,7.914 -19.092,14.305 -17.921,3.441 M 147.598,433.919 c -8.564,-10.973 -3.136,-18.245 1.506,-21.435 20.776,-14.288 42.146,23.12 14.513,27.537 -7.372,1.139 -13.032,-2.236 -16.019,-6.102 M 32.063,469.314 c -0.087,-1.317 0.937,-5.897 2.08,-7.062 7.416,-7.55 22.55,0.603 28.702,11.8 4.806,8.803 0.954,15.969 -6.866,16.819 -10.252,1.057 -23.256,-11.799 -23.916,-21.557 m 269.072,-84.89 c -4.697,-15.363 25.896,-25.634 30.222,-10.06 1.834,6.886 -1.908,14.433 -15.963,16.564 -8.225,1.266 -12.444,-0.622 -14.259,-6.504 m -184.399,57.429 c 21.221,-9.02 38.545,25.831 16.844,30.596 -19.268,4.147 -33.477,-23.459 -16.844,-30.596 m 124.722,-28.137 c 19.55,-8.96 34.734,11.97 23.063,22.848 -2.379,2.292 -6.641,3.585 -9.558,4.326 -22.457,5.671 -30.812,-19.179 -13.505,-27.174 M 86.649,487.691 c -5.279,-7.262 -5.639,-17.233 2.497,-20.79 8.159,-3.563 19.957,1.618 25.784,10.156 7.363,10.786 2.863,19.406 -6.563,20.828 -8.181,1.229 -16.183,-2.535 -21.718,-10.194 M 491.695,370.16 c 0.115,7.25 -8.544,12.085 -19.072,13.146 -36.38,3.895 18.646,-39.358 19.072,-13.146 M 189.343,475.116 c -21.238,-16.24 7.606,-37.152 24.932,-23.992 13.18,10.044 6.49,24.432 -5.647,27.169 -10.358,2.306 -15.783,-0.5 -19.285,-3.177 m 159.465,-37.964 c -7.479,-19.177 37.084,-28.235 41.422,-10.978 2.083,8.631 -6.075,16.517 -21.834,18.442 -15.058,1.849 -17.636,-2.48 -19.588,-7.464 m -195.171,37.592 c 23.986,-8.194 45.333,28.598 16.748,31.428 -20.737,2.008 -36.289,-24.672 -16.748,-31.428 m 121.827,2.31 c -9.433,-19.067 33.415,-31.453 42.506,-10.937 4.557,10.397 -6.002,18.869 -19.138,20.233 -11.442,1.143 -19.436,-1.314 -23.368,-9.296 M 0,545.804 c 4.753,5.455 6.002,11.386 0.112,11.143 C 0.075,556.945 0.038,556.943 0,556.941 Z m 121.69,-25.513 c -20.726,-19.887 7.261,-33.923 24.829,-16.811 12.642,12.364 7.413,24.069 -6.995,24.144 -7.537,0.026 -13.812,-3.503 -17.834,-7.333 m 394.44,-81.18 c -0.098,-13.187 39.42,-19.592 38.906,-6.217 -0.232,5.53 -6.96,11.521 -23.072,12.539 -10.632,0.637 -15.784,-1.195 -15.834,-6.322 m -294.259,65.57 c -9.791,-18.543 30.593,-28.325 40.989,-8.476 5.299,10.174 -4.628,18.189 -15.165,19.374 -11.428,1.308 -21.385,-2.523 -25.824,-10.898 m 180.817,-16.93 c -13.46,-23.072 64.855,-23.757 37.288,0.016 -2.959,2.581 -10.662,5.733 -21.512,5.797 -13.814,0.06 -14.628,-3.863 -15.776,-5.813 M 187.109,532.32 c -20.841,-16.966 8.199,-33.894 26.926,-18.652 12.746,10.41 5.945,22.64 -6.16,23.949 -11.713,1.232 -17.156,-2.352 -20.766,-5.297 m 146.508,-30.659 c 22.779,-5.051 36.092,13.889 21.677,21.504 -3.013,1.562 -7.838,2.139 -11.119,2.401 -25.562,2.033 -30.809,-19.364 -10.558,-23.905 m 251.338,-7.181 c 16.492,-8.988 21.273,7.416 3.082,4.036 -3.693,0.285 -2.715,-2.333 -3.082,-4.036 M 150.85,543.95 c -4.618,-6.664 -3.341,-15.008 6.343,-17.051 9.706,-1.991 21.964,3.705 27.01,11.489 6.368,9.835 -0.12,16.469 -10.839,16.594 -9.337,0.047 -17.61,-4 -22.514,-11.032 m 114.148,-2.313 c -7.175,-9.649 0.849,-14.122 6.925,-15.723 27.233,-6.98 42.898,24.43 10.129,22.981 -8.747,-0.378 -14.482,-3.865 -17.054,-7.258 M 0,565.838 c 7.821,-0.842 23.146,16.929 11.977,15.399 C 8.902,580.813 5.076,578.504 2.741,576.33 1.625,575.29 0.72,574.285 0,573.338 Z m 482.679,-34.476 c -0.626,2.362 -6.552,5.979 -15.468,4.297 -22.865,-6.716 18.985,-17.115 15.468,-4.297 M 130.26,563.024 c -5.03,-4.223 -6.499,-7.599 -7.246,-9.822 -4.808,-14.693 30.174,-14.678 35.559,6.322 1.178,4.643 -3.06,9.218 -9.673,9.58 -8.911,0.503 -15.274,-3.28 -18.64,-6.08 M 0,576.947 c 1.642,1.081 3.34,2.568 4.875,4.463 2.852,3.539 2.432,5.758 -1.181,5.216 C 2.466,586.442 1.211,585.958 0,585.284 Z m 223.746,-14.913 c -18.505,-14.194 9.317,-24.97 24.234,-13.617 11.329,8.669 4.457,17.904 -6.73,18.299 -9.646,0.334 -14.435,-2.338 -17.504,-4.682 m 148.141,-6.013 c -3.818,-9.166 24.582,-12.674 27.198,-1.582 1.165,5.365 -5.571,7.502 -14.05,7.137 -9.814,-0.46 -12.158,-3.323 -13.148,-5.555 m -179.557,2.644 c 22.039,-1.91 34.05,23.37 12.06,22.657 -19.715,-0.683 -29.622,-21.06 -12.06,-22.657 M 28.494,574.968 c 9.765,-0.836 25.933,18.102 13.618,16.97 -9.749,-0.923 -22.44,-16.186 -13.618,-16.97 m 278.925,-1.226 c -5.935,-11.525 23.526,-11.957 27.613,-1.111 1.721,4.501 -2.292,8.714 -13.761,7.769 -7.299,-0.624 -12.219,-3.45 -13.852,-6.658 m -283.93,19.595 c -5.193,-4.342 -6.229,-8.345 -5.076,-9.305 5.899,-4.851 24.884,14.911 12.768,12.998 -2.845,-0.445 -5.99,-2.277 -7.692,-3.693 m 499.209,-17.211 c 0.269,1.07 0.511,2.13 0.738,3.265 -2.545,0.077 -5.018,0.153 -7.476,0.258 -2.111,-2.716 0.06,-3.876 6.738,-3.523 m -361.044,-5.343 c 19.188,-1.802 35.965,23.77 13.151,21.914 -16.936,-1.416 -29.168,-20.382 -13.151,-21.914 m 102.572,7.416 c 15.017,-1.392 26.005,12.025 16.977,15.921 -1.869,0.829 -5.144,0.816 -7.39,0.736 -17.5,-0.611 -23.204,-15.344 -9.587,-16.657 M 18.133,600 c -4.83,-2.932 -8.642,-8.844 -4.796,-8.922 4.202,-0.066 10.696,5.957 11.242,8.922 z m 403.033,-6.296 c 1.548,-0.183 1.938,-0.81 2.316,-1.427 5.671,-0.401 9.259,0.485 9.746,3.212 -0.297,3.325 -12.946,2.671 -12.062,-1.785 M 142.458,600 c -3.993,-1.721 -7.482,-4.362 -10.02,-7.678 -3.961,-5.181 -3.265,-11.01 4.28,-11.572 7.499,-0.547 17.29,4.517 21.616,10.44 2.846,3.914 2.947,6.929 1.208,8.81 z m -135.96,0 c -0.541,-1.076 -0.477,-1.896 0.555,-1.942 1.155,-0.045 2.821,0.805 4.352,1.942 z m 212.845,0 c -5.904,-7.186 -0.44,-9.564 3.835,-10.151 10.404,-1.371 19.318,4.859 21.271,10.151 z m -170.571,0 c -0.744,-1.027 -1.192,-1.881 -1.405,-2.427 -1.374,-3.498 1.913,-5.312 7.115,-3.444 3.628,1.31 6.747,3.541 8.931,5.871 z m 63.602,0 c -4.154,-5.247 -4.366,-10.606 3.311,-10.836 6.625,-0.176 16.279,4.962 20.545,10.512 0.083,0.108 0.163,0.217 0.242,0.324 z m 75.167,0 c 3.041,-1.506 8.166,-1.643 13.165,0 z m -94.587,0 c 0.329,-1.681 1.856,-2.818 4.966,-2.926 2.94,-0.103 6.735,1.065 10.345,2.926 z"
                   style="fill:url(#radialGradient8761);fill-rule:evenodd;stroke:none"
                   id="path8763"
                   inkscape:connector-curvature="0" /></g></g></g></g></g></g></g></svg>